<svg width="13" height="13" viewBox="0 0 13 13" fill="none" xmlns="http://www.w3.org/2000/svg">
<path d="M11.6077 1.45948C11.2821 1.12117 10.8408 0.931152 10.3807 0.931152C9.92061 0.931152 9.47933 1.12117 9.15374 1.45948L1.36481 9.56537C1.14176 9.79619 0.964908 10.0708 0.84448 10.3732C0.724053 10.6756 0.662443 10.9998 0.663215 11.3272V12.3504C0.663215 12.4826 0.713671 12.6093 0.803484 12.7028C0.893296 12.7963 1.01511 12.8488 1.14212 12.8488H2.12532C2.43984 12.8497 2.75142 12.7857 3.04202 12.6605C3.33261 12.5352 3.59645 12.3512 3.81825 12.1191L11.6077 4.01276C11.9326 3.67395 12.1151 3.21481 12.1151 2.73612C12.1151 2.25743 11.9326 1.79829 11.6077 1.45948ZM3.14108 11.4144C2.87097 11.6936 2.50603 11.8509 2.12532 11.852H1.62103V11.3272C1.62054 11.1308 1.6575 10.9362 1.72976 10.7548C1.80202 10.5733 1.90814 10.4086 2.04199 10.2701L7.95313 4.11842L9.05461 5.26472L3.14108 11.4144ZM10.93 3.30803L9.72987 4.5575L8.62838 3.41369L9.829 2.16421C9.90133 2.08911 9.98716 2.02956 10.0816 1.98898C10.176 1.9484 10.2772 1.92757 10.3794 1.92768C10.4816 1.9278 10.5827 1.94886 10.6771 1.98966C10.7714 2.03045 10.8571 2.09019 10.9293 2.16546C11.0015 2.24073 11.0587 2.33005 11.0977 2.42833C11.1367 2.52661 11.1567 2.63192 11.1566 2.73825C11.1565 2.84458 11.1362 2.94984 11.097 3.04803C11.0578 3.14622 11.0004 3.23542 10.9281 3.31052L10.93 3.30803Z" fill="#D06868"/>
</svg>
