<svg width="12" height="12" viewBox="0 0 12 12" fill="none" xmlns="http://www.w3.org/2000/svg">
<path d="M11.0001 2H8.50012V1C8.50012 0.734784 8.39477 0.48043 8.20723 0.292893C8.01969 0.105357 7.76534 0 7.50012 0L4.50012 0C4.23491 0 3.98055 0.105357 3.79302 0.292893C3.60548 0.48043 3.50012 0.734784 3.50012 1V2H1.00012V3H2.00012V10.5C2.00012 10.8978 2.15816 11.2794 2.43946 11.5607C2.72077 11.842 3.1023 12 3.50012 12H8.50012C8.89795 12 9.27948 11.842 9.56078 11.5607C9.84209 11.2794 10.0001 10.8978 10.0001 10.5V3H11.0001V2ZM4.50012 1H7.50012V2H4.50012V1ZM9.00012 10.5C9.00012 10.6326 8.94745 10.7598 8.85368 10.8536C8.75991 10.9473 8.63273 11 8.50012 11H3.50012C3.36751 11 3.24034 10.9473 3.14657 10.8536C3.0528 10.7598 3.00012 10.6326 3.00012 10.5V3H9.00012V10.5Z" fill="#D06868"/>
<path d="M5.49988 5H4.49988V9H5.49988V5Z" fill="#D06868"/>
<path d="M7.49976 5H6.49976V9H7.49976V5Z" fill="#D06868"/>
</svg>
