<svg width="16" height="16" viewBox="0 0 16 16" fill="none" xmlns="http://www.w3.org/2000/svg">
<path d="M10.266 15.981C9.95147 15.981 9.64797 15.843 9.38797 15.5825L7.56397 13.7585C7.01947 13.214 6.78446 12.216 7.02896 11.486L8.26747 7.78901L4.55946 9.01851C4.36647 9.08251 4.15396 9.11501 3.92846 9.11501C3.30696 9.11501 2.67796 8.87151 2.28696 8.48001L0.398464 6.59201C0.0729644 6.26601 -0.0625356 5.86101 0.0279644 5.47951C0.118964 5.09901 0.420964 4.79751 0.858465 4.65201L14.595 0.0970059C15.1105 -0.0739941 15.5765 0.0420059 15.8255 0.389006C16.0195 0.658506 16.053 1.02701 15.9195 1.42551L11.3305 15.1255C11.154 15.6535 10.7455 15.981 10.266 15.981Z" fill="#BF8787"/>
</svg>
